<svg xmlns="http://www.w3.org/2000/svg" width="64" height="64" viewBox="0 0 64 64">
  <defs>
    <linearGradient id="backgroundGradient" x1="0%" y1="0%" x2="100%" y2="100%">
      <stop offset="0%" stop-color="#2D2D2D" />
      <stop offset="100%" stop-color="#000000" />
    </linearGradient>
    <filter id="glowEffect" x="-50%" y="-50%" width="200%" height="200%">
      <feGaussianBlur stdDeviation="1.5" result="coloredBlur" />
      <feMerge>
        <feMergeNode in="coloredBlur" />
        <feMergeNode in="SourceGraphic" />
      </feMerge>
    </filter>
  </defs>

  <rect width="64" height="64" rx="12" fill="url(#backgroundGradient)"/>

  <path d="M22 16H32A16 16 0 0 1 48 32A16 16 0 0 1 32 48H22V16Z" fill="#FFFFFF" opacity="0.2"/>
  <path d="M26 20H32A12 12 0 0 1 44 32A12 12 0 0 1 32 44H26V20Z" fill="#FFFFFF" opacity="1.0" filter="url(#glowEffect)"/>
  <path d="M30 24H32A8 8 0 0 1 40 32A8 8 0 0 1 32 40H30V24Z" fill="#0A0A0A"/>
</svg>