<svg xmlns="http://www.w3.org/2000/svg" width="64" height="64" viewBox="0 0 64 64">
  <defs>
    <linearGradient id="backgroundGradient" x1="0%" y1="0%" x2="100%" y2="100%">
      <stop offset="0%" stop-color="#2D2D2D" />
      <stop offset="100%" stop-color="#000000" />
    </linearGradient>
    <filter id="glowEffect" x="-50%" y="-50%" width="200%" height="200%">
      <feGaussianBlur stdDeviation="3" result="coloredBlur" />
      <feMerge>
        <feMergeNode in="coloredBlur" />
        <feMergeNode in="SourceGraphic" />
      </feMerge>
    </filter>
  </defs>

  <rect width="64" height="64" rx="12" fill="url(#backgroundGradient)"/>

  <path d="M22 16H32C40.837 16 48 23.163 48 32C48 40.837 40.837 48 32 48H22V16Z" fill="#FFFFFF" opacity="0.1"/>
  <path d="M26 20H32C38.627 20 44 25.373 44 32C44 38.627 38.627 44 32 44H26V20Z" fill="#FFFFFF" opacity="0.9" filter="url(#glowEffect)"/>
  <path d="M30 24H32C36.418 24 40 27.582 40 32C40 36.418 36.418 40 32 40H30V24Z" fill="#000000"/>
</svg>
